<mxfile host="app.diagrams.net" modified="2022-04-12T09:32:47.734Z" agent="5.0 (Macintosh; Intel Mac OS X 10_15_7) AppleWebKit/537.36 (KHTML, like Gecko) Chrome/100.0.4896.60 Safari/537.36" etag="KJ7c_S6Iw2Q7D12ji1Tg" version="17.4.3" type="github">
  <diagram id="hCXL-EmN-yP1F1laMDvZ" name="Page-1">
    <mxGraphModel dx="1426" dy="712" grid="1" gridSize="10" guides="1" tooltips="1" connect="1" arrows="1" fold="1" page="1" pageScale="1" pageWidth="827" pageHeight="1169" math="0" shadow="0">
      <root>
        <mxCell id="0" />
        <mxCell id="1" parent="0" />
        <mxCell id="S6CZXsp_g17U7-wcB1Qq-1" value="通知ID&lt;br&gt;业务类型（统一管理）&lt;br&gt;前端查看路径（统一管理）&lt;br&gt;业务ID&lt;br&gt;通知内容&lt;br&gt;通知时间&lt;br&gt;发送方&lt;br&gt;接收方&lt;br&gt;&lt;br&gt;" style="rounded=1;whiteSpace=wrap;html=1;" vertex="1" parent="1">
          <mxGeometry x="260" y="120" width="200" height="130" as="geometry" />
        </mxCell>
      </root>
    </mxGraphModel>
  </diagram>
</mxfile>
